<svg xmlns="http://www.w3.org/2000/svg" width="150" height="150" viewBox="0 0 150 150"><path d="M108.6 0H41.4A41.5 41.5 0 0 0 0 41.4v67.2A41.5 41.5 0 0 0 41.4 150h67.2a41.5 41.5 0 0 0 41.4-41.4V41.4A41.5 41.5 0 0 0 108.6 0zm28.1 108.6a28.1 28.1 0 0 1-28.1 28.1H41.4a28.1 28.1 0 0 1-28.1-28.1V41.4a28.1 28.1 0 0 1 28.1-28.1h67.2a28.1 28.1 0 0 1 28.1 28.1v67.2z"/><path d="M75 36.4A38.7 38.7 0 1 0 113.7 75 38.7 38.7 0 0 0 75 36.4zm0 63.9A25.3 25.3 0 1 1 100.3 75 25.3 25.3 0 0 1 75 100.3zm40.3-75.2a9.8 9.8 0 0 0-6.9 2.8 9.6 9.6 0 0 0-2.9 6.9 9.9 9.9 0 0 0 9.8 9.8 10 10 0 0 0 6.9-2.9 9.8 9.8 0 0 0 2.8-6.9 9.6 9.6 0 0 0-9.7-9.7z"/></svg>