<svg xmlns="http://www.w3.org/2000/svg" width="150" height="143" viewBox="0 0 150 143"><path d="M2.3 46.5h32.1V143H2.3zm137.6 8.8c-6.8-7.4-15.7-11.1-26.8-11.1a39.4 39.4 0 0 0-11.2 1.5 23.8 23.8 0 0 0-8.4 4.3 40.6 40.6 0 0 0-5.5 5 36.8 36.8 0 0 0-3.8 5.2V46.5H52.1v4.6c.1 3.1.1 12.8.1 28.9s0 37.1-.2 63h32.2V89.1a24.5 24.5 0 0 1 1-7.9 21.4 21.4 0 0 1 6.2-8.3 16.2 16.2 0 0 1 10.3-3.4c5.6 0 9.7 2 12.3 5.8s4 9.2 4 16V143h32V87.6c0-14.2-3.4-25-10.1-32.3zM18.5 0C13.1 0 8.8 1.6 5.4 4.7a15.9 15.9 0 0 0-5 12 15.5 15.5 0 0 0 4.9 11.8c3.2 3.2 7.5 4.8 12.8 4.8h.2q8.3 0 13.2-4.8a14.9 14.9 0 0 0 4.9-11.8 16.2 16.2 0 0 0-4.9-12C28.2 1.6 23.9 0 18.5 0z"/></svg>