<svg xmlns="http://www.w3.org/2000/svg" width="150" height="129.4" viewBox="0 0 150 129.4"><path fill-rule="evenodd" d="M149.4 24.1c1.1-6.3 1.1-12.8-2.8-17.6-5.4-6.9-17-7.1-24.8-5.9S93.6 11.1 86.2 34.1c13.1-1 20 .9 18.7 15.3-.5 6-3.6 12.7-7 19S86.7 90 77 79.7s-8-27.1-10-38.9c-1.1-6.7-2.3-15-4.5-21.8S56.3 6 51.1 4.5s-12.7.9-16.8 3.3c-13 7.7-23 18.6-34.3 27.7 1.8 3.9 2.8 6.4 6.1 6.9 7.8 1.2 15.2-7.2 20.4 1.5 3.2 5.4 4.1 11.2 6.2 17 2.6 7.6 4.7 16 6.9 24.8 3.8 14.9 8.3 37.2 21.2 42.7 6.6 2.8 16.5-1 21.5-3.9 13.6-8.1 24.2-19.7 33.2-31.6 20.7-28 32.1-59.8 33.9-68.8z"/></svg>